<svg xmlns="http://www.w3.org/2000/svg" viewBox="0 0 100 100">
  <g fill="none" stroke="#ffffff" stroke-width="3" stroke-linecap="round">
    <line x1="50" y1="10" x2="50" y2="90"/>
    <line x1="10" y1="50" x2="90" y2="50"/>
    <line x1="20" y1="20" x2="80" y2="80"/>
    <line x1="80" y1="20" x2="20" y2="80"/>
    <line x1="50" y1="10" x2="40" y2="20"/>
    <line x1="50" y1="10" x2="60" y2="20"/>
    <line x1="50" y1="90" x2="40" y2="80"/>
    <line x1="50" y1="90" x2="60" y2="80"/>
    <line x1="10" y1="50" x2="20" y2="40"/>
    <line x1="10" y1="50" x2="20" y2="60"/>
    <line x1="90" y1="50" x2="80" y2="40"/>
    <line x1="90" y1="50" x2="80" y2="60"/>
    <line x1="20" y1="20" x2="25" y2="30"/>
    <line x1="20" y1="20" x2="30" y2="25"/>
    <line x1="80" y1="80" x2="75" y2="70"/>
    <line x1="80" y1="80" x2="70" y2="75"/>
    <line x1="80" y1="20" x2="75" y2="30"/>
    <line x1="80" y1="20" x2="70" y2="25"/>
    <line x1="20" y1="80" x2="25" y2="70"/>
    <line x1="20" y1="80" x2="30" y2="75"/>
  </g>
</svg>
